<svg width="175" height="34" viewBox="0 0 175 34" fill="none" xmlns="http://www.w3.org/2000/svg">
<path d="M28.41 26.3864C23.22 22.6564 23.41 21.0264 19.41 19.6464C19.41 19.6464 26.18 19.7163 28.05 12.9963C28.0943 12.8311 28.0926 12.6568 28.0452 12.4924C27.9977 12.328 27.9063 12.1797 27.7808 12.0634C27.6552 11.9471 27.5004 11.8674 27.3328 11.8326C27.1653 11.7979 26.9914 11.8095 26.83 11.8663C23.91 12.8663 19.83 11.7163 17.27 13.4363L18.65 8.09637L13.36 6.73633L12 12.0563L1.34998 9.30634L0 14.6163L5.32001 15.9863L3.95001 21.3163L9.27002 22.6564C8.68002 23.8264 7.03002 28.2563 11.52 32.8563C11.6287 32.9668 11.7602 33.052 11.9054 33.1061C12.0506 33.1602 12.2059 33.1819 12.3604 33.1695C12.5148 33.1571 12.6646 33.111 12.7993 33.0344C12.934 32.9579 13.0503 32.8527 13.14 32.7264C16.37 28.2164 15.81 26.5563 15.14 23.3763C18.85 28.0563 25 28.9963 28.22 27.8563C28.3624 27.8025 28.4875 27.711 28.5818 27.5916C28.6762 27.4721 28.7364 27.3293 28.7559 27.1783C28.7754 27.0274 28.7536 26.8739 28.6926 26.7344C28.6317 26.5949 28.534 26.4746 28.41 26.3864Z" fill="black"/>
<path d="M17.3666 13.3923L12.0508 12.0205L10.679 17.3363L15.9948 18.7081L17.3666 13.3923Z" fill="black"/>
<path d="M18.7348 8.06371L13.4189 6.69189L12.0471 12.0077L17.363 13.3796L18.7348 8.06371Z" fill="black"/>
<path d="M14.7915 1.37182L9.47559 0L8.10379 5.31584L13.4197 6.68766L14.7915 1.37182Z" fill="#A629FF"/>
<path d="M15.9906 18.7116L10.6748 17.3398L9.303 22.6557L14.6188 24.0275L15.9906 18.7116Z" fill="#25FFDE"/>
<path d="M12.0405 12.0168L6.72461 10.645L5.35281 15.9609L10.6687 17.3327L12.0405 12.0168Z" fill="#FFAF25"/>
<path d="M6.72111 10.6413L1.40527 9.26953L0.0334729 14.5854L5.34931 15.9572L6.72111 10.6413Z" fill="#FFAF25"/>
<path d="M78.8801 12.4464C77.4231 11.9227 75.8763 11.6949 74.3301 11.7764C72.303 11.7724 70.2791 11.9397 68.2801 12.2764V15.4864C68.8401 15.4264 69.6001 15.3563 70.5601 15.2963C71.5201 15.2363 72.3101 15.2064 72.9601 15.2064C73.896 15.1821 74.8322 15.2322 75.7601 15.3563C75.9877 15.3842 76.2059 15.4636 76.3982 15.5883C76.5905 15.7131 76.7519 15.88 76.8701 16.0764C77.1199 16.7118 77.2224 17.3956 77.1701 18.0764V18.6764C75.0101 18.5864 73.3801 18.5463 72.3001 18.5463C71.278 18.5036 70.2578 18.6669 69.3001 19.0264C68.6088 19.3223 68.0625 19.8794 67.7801 20.5764C67.4536 21.5173 67.3077 22.5113 67.3501 23.5064C67.2859 24.1562 67.3568 24.8123 67.5581 25.4336C67.7594 26.0548 68.087 26.6277 68.5201 27.1164C69.5282 27.9205 70.8048 28.3103 72.0901 28.2064C73.1067 28.2243 74.1196 28.0792 75.0901 27.7764C75.9577 27.4731 76.6744 26.846 77.0901 26.0264H77.3101L77.4401 27.9564H81.3301V18.2664C81.3819 16.9858 81.2231 15.7055 80.8601 14.4764C80.6944 14.0161 80.432 13.5967 80.0904 13.2465C79.7489 12.8963 79.3361 12.6234 78.8801 12.4464ZM77.1701 21.5664C77.2241 22.3711 77.0619 23.1756 76.7001 23.8964C76.4536 24.2495 76.1045 24.5183 75.7001 24.6663C75.1598 24.8339 74.5956 24.9116 74.0301 24.8964C73.4401 24.9148 72.8498 24.8678 72.2701 24.7564C72.1154 24.7315 71.968 24.6729 71.8384 24.5847C71.7088 24.4966 71.6002 24.3811 71.5201 24.2464C71.3586 23.861 71.29 23.4431 71.3201 23.0264C71.3006 22.5944 71.3512 22.1621 71.4701 21.7464C71.5197 21.615 71.6001 21.4975 71.7045 21.4035C71.8089 21.3096 71.9343 21.242 72.0701 21.2064C72.5171 21.0911 72.979 21.0439 73.4401 21.0664H77.1801L77.1701 21.5664Z" fill="black"/>
<path d="M91.5298 14.7961H91.2897L91.1597 12.0561H87.2598V27.9461H91.4097V21.7161C91.3652 20.5359 91.5173 19.3565 91.8597 18.2261C91.9892 17.8368 92.1959 17.4777 92.4673 17.1701C92.7388 16.8625 93.0696 16.6129 93.4398 16.4361C94.4454 16.0175 95.532 15.8296 96.6198 15.8861V11.8061C95.49 11.7546 94.3646 11.9777 93.3398 12.4561C92.4636 12.9807 91.8174 13.8162 91.5298 14.7961Z" fill="black"/>
<path d="M105.831 24.4463C105.577 24.3158 105.356 24.1306 105.183 23.904C105.01 23.6774 104.89 23.4152 104.831 23.1363C104.632 22.1154 104.549 21.0757 104.581 20.0363C104.546 19.0072 104.627 17.9775 104.821 16.9663C104.869 16.6876 104.98 16.4235 105.144 16.1933C105.309 15.9631 105.523 15.7727 105.771 15.6363C106.524 15.3398 107.333 15.2134 108.141 15.2663C109.31 15.2586 110.478 15.3522 111.631 15.5462V12.3363C110.927 12.1656 110.212 12.0453 109.491 11.9763C108.68 11.8862 107.866 11.8395 107.051 11.8363C105.544 11.738 104.039 12.0563 102.701 12.7563C101.752 13.3389 101.072 14.2737 100.811 15.3562C100.482 16.8801 100.337 18.4379 100.381 19.9963C100.335 21.6028 100.47 23.2095 100.781 24.7863C100.899 25.3136 101.123 25.8114 101.44 26.2497C101.756 26.6879 102.158 27.0576 102.621 27.3363C104.011 28.0289 105.561 28.3362 107.111 28.2263C107.897 28.2263 108.717 28.1862 109.571 28.1062C110.304 28.0417 111.032 27.9281 111.751 27.7663V24.5563C110.131 24.7163 108.951 24.7962 108.201 24.7962C107.395 24.847 106.587 24.7277 105.831 24.4463Z" fill="black"/>
<path d="M121.05 12.0562H116.87V27.9562H121.05V12.0562Z" fill="black"/>
<path d="M137.521 19.0562C136.925 18.7527 136.277 18.566 135.611 18.5062L131.611 18.0362C131.272 18.001 130.937 17.934 130.611 17.8362C130.523 17.8082 130.443 17.7614 130.376 17.6993C130.309 17.6371 130.255 17.561 130.221 17.4762C130.147 17.2026 130.117 16.9192 130.131 16.6362C130.093 16.2794 130.193 15.9218 130.411 15.6362C130.661 15.4076 130.982 15.2702 131.321 15.2462C131.962 15.1884 132.607 15.165 133.251 15.1762C134.864 15.1849 136.477 15.2784 138.081 15.4562V12.2762C137.253 12.0996 136.414 11.9793 135.571 11.9162C134.571 11.8262 133.571 11.7762 132.661 11.7762C131.482 11.75 130.304 11.8607 129.151 12.1062C128.293 12.2896 127.529 12.776 127.001 13.4762C126.405 14.3958 126.125 15.4835 126.201 16.5762C126.18 17.4112 126.27 18.2453 126.471 19.0562C126.628 19.6646 126.979 20.2053 127.471 20.5962C128.116 21.0382 128.87 21.2973 129.651 21.3462L133.331 21.8162C133.716 21.8442 134.098 21.9113 134.471 22.0162C134.565 22.0397 134.653 22.0842 134.727 22.1466C134.802 22.209 134.861 22.2875 134.901 22.3762C134.995 22.656 135.032 22.9518 135.011 23.2462C135.033 23.573 134.971 23.9001 134.831 24.1962C134.619 24.442 134.323 24.5991 134.001 24.6362C133.34 24.7442 132.67 24.7911 132.001 24.7762C131.251 24.7762 130.371 24.7762 129.371 24.6962C128.371 24.6162 127.481 24.5762 126.731 24.4962V27.7362C127.581 27.8562 128.591 27.9662 129.731 28.0462C130.871 28.1262 131.931 28.1662 132.861 28.1662C134.005 28.1964 135.148 28.0754 136.261 27.8062C137.084 27.6002 137.799 27.0891 138.261 26.3762C138.805 25.3944 139.055 24.2765 138.981 23.1562C139.021 22.2125 138.899 21.2687 138.621 20.3662C138.426 19.8097 138.035 19.3437 137.521 19.0562Z" fill="black"/>
<path d="M154.601 19.0561C154.005 18.7526 153.357 18.5659 152.691 18.5061L148.691 18.0361C148.352 18.0008 148.017 17.9339 147.691 17.8361C147.603 17.8081 147.523 17.7613 147.456 17.6991C147.389 17.637 147.336 17.5609 147.301 17.4761C147.227 17.2025 147.197 16.9191 147.211 16.6361C147.173 16.2793 147.274 15.9217 147.491 15.6361C147.739 15.4096 148.056 15.2723 148.391 15.2461C149.036 15.1884 149.683 15.1651 150.331 15.1761C151.944 15.1848 153.557 15.2783 155.161 15.4561V12.2761C154.333 12.0995 153.495 11.9792 152.651 11.9161C151.651 11.8261 150.651 11.7761 149.731 11.7761C148.555 11.7504 147.381 11.8611 146.231 12.1061C145.372 12.2869 144.608 12.7739 144.081 13.4761C143.486 14.3956 143.205 15.4834 143.281 16.5761C143.26 17.4111 143.35 18.2452 143.551 19.0561C143.708 19.6645 144.059 20.2051 144.551 20.5961C145.196 21.0381 145.95 21.2972 146.731 21.3461L150.411 21.8161C150.796 21.8441 151.178 21.9111 151.551 22.0161C151.645 22.0395 151.733 22.0841 151.807 22.1465C151.882 22.2088 151.941 22.2874 151.981 22.3761C152.075 22.6558 152.113 22.9516 152.091 23.2461C152.113 23.5729 152.051 23.9 151.911 24.1961C151.699 24.4419 151.403 24.599 151.081 24.6361C150.42 24.7441 149.75 24.791 149.081 24.7761C148.331 24.7761 147.451 24.7761 146.451 24.6961C145.451 24.6161 144.561 24.5761 143.811 24.4961V27.7361C144.661 27.8561 145.671 27.9661 146.811 28.0461C147.951 28.1261 149.011 28.1661 149.941 28.1661C151.085 28.1963 152.228 28.0752 153.341 27.8061C154.165 27.6001 154.879 27.089 155.341 26.3761C155.885 25.3943 156.135 24.2763 156.061 23.1561C156.101 22.2124 155.98 21.2686 155.701 20.3661C155.507 19.8096 155.115 19.3435 154.601 19.0561Z" fill="black"/>
<path d="M173.88 14.446C173.707 13.9903 173.439 13.5764 173.094 13.2317C172.749 12.8869 172.336 12.6191 171.88 12.446C170.423 11.9233 168.876 11.6956 167.33 11.776C165.319 11.7743 163.312 11.9416 161.33 12.276V15.486C161.89 15.426 162.65 15.356 163.6 15.296C164.55 15.236 165.36 15.206 166 15.206C166.939 15.1818 167.879 15.2319 168.81 15.356C169.037 15.3839 169.256 15.4632 169.448 15.588C169.64 15.7127 169.802 15.8796 169.92 16.076C170.16 16.7138 170.259 17.3962 170.21 18.076V18.676C168.05 18.586 166.43 18.546 165.35 18.546C164.328 18.5049 163.308 18.6681 162.35 19.026C161.661 19.3223 161.118 19.8797 160.84 20.576C160.51 21.5161 160.36 22.5103 160.4 23.506C160.336 24.1559 160.407 24.812 160.608 25.4332C160.809 26.0544 161.137 26.6273 161.57 27.116C162.578 27.9201 163.855 28.3099 165.14 28.206C166.156 28.2248 167.169 28.0797 168.14 27.776C169.006 27.4709 169.722 26.8444 170.14 26.026H170.36L170.48 27.956H174.38V18.266C174.42 16.9741 174.251 15.6841 173.88 14.446ZM170.2 21.576C170.259 22.381 170.096 23.1868 169.73 23.906C169.486 24.2615 169.136 24.5309 168.73 24.676C168.19 24.8444 167.625 24.9222 167.06 24.906C166.47 24.9238 165.88 24.8768 165.3 24.766C165.146 24.7386 165 24.679 164.87 24.5911C164.741 24.5032 164.632 24.389 164.55 24.256C164.393 23.8692 164.325 23.4525 164.35 23.036C164.327 22.6033 164.382 22.1699 164.51 21.756C164.558 21.6254 164.636 21.5082 164.739 21.4142C164.842 21.3202 164.965 21.2523 165.1 21.216C165.547 21.1015 166.009 21.0543 166.47 21.076H170.21L170.2 21.576Z" fill="black"/>
<path d="M58.04 20.5562L52.43 12.2062L52.33 12.0562H48.46V27.9462H52.26V18.9362L58.22 27.9462H61.84V12.0562H58.04V20.5562Z" fill="black"/>
</svg>
